<svg id="Layer_1" data-name="Layer 1" xmlns="http://www.w3.org/2000/svg" xmlns:xlink="http://www.w3.org/1999/xlink" viewBox="0 0 155 50"><defs><style>.cls-1{fill:none;}.cls-2{clip-path:url(#clip-path);}.cls-3{fill:#1d1d1b;}</style><clipPath id="clip-path"><rect class="cls-1" x="2.74" y="1.51" width="149.51" height="46.99"/></clipPath></defs><g class="cls-2"><path class="cls-3" d="M151.89,36h.37l-51.75-2.47c-7.92-.38-14.36-.7-19.23-.91l-16.22-.77c-7.13-.35-15.67-.74-25.81-1.22l.22.05c.22,0,.86.13,40.55,6.68-30.46,4.74-46.49,7.21-56.34,8.75L8.53,48.49c17.69-1.35,32.1-2.43,44-3.33l26.06-2c7.5-.74,16.28-1.6,26.63-2.6,12.49-1.23,27.82-2.71,47-4.58h-.37"/><path class="cls-3" d="M2.74,29.72,20.67,39.78h0l-6.77,6.38,58.73-8.78Z"/><path class="cls-3" d="M23.13,28c4.77,0,7.08-2.35,7.08-5.59,0-3.42-2.1-4.42-5.94-5.74-1.75-.6-2.39-1-2.39-1.53s.75-1,1.39-1A5.81,5.81,0,0,1,27.15,16l2.64-3.88A10.31,10.31,0,0,0,23.2,10c-3.64,0-6.52,2-6.52,5.56,0,3.35,2.56,4.77,5.49,5.66,2.17.68,2.7,1,2.7,1.6s-.57,1-1.67,1a6.69,6.69,0,0,1-4.56-2L16,25.47A10.38,10.38,0,0,0,23.13,28m9,6.73h5.56V26l.07,0a5.87,5.87,0,0,0,4.66,2c4.81,0,8.23-3.63,8.23-9s-3.42-9-7.94-9a6.42,6.42,0,0,0-4.95,2.17h-.07V10.3H32.11ZM41.3,23.13A3.82,3.82,0,0,1,37.42,19a3.86,3.86,0,0,1,3.84-4.14C43.4,14.89,45,16.53,45,19s-1.57,4.1-3.7,4.1m11.33,4.59h5.55V19.88a3.68,3.68,0,0,1,4-3.95c.29,0,.79,0,1.32.07V10h-.21a6.18,6.18,0,0,0-5,2.74h-.08V10.3H52.63ZM72.31,28a5.69,5.69,0,0,0,4.8-2.17l.08,0v1.82h5.3V10.3H76.9v1.82l-.07,0A6.23,6.23,0,0,0,72,10c-4.5,0-8,3.7-8,9.05s3.45,9,8.23,9m1.18-4.91c-2.21,0-3.74-1.64-3.74-4.1s1.6-4.14,3.74-4.14A3.83,3.83,0,0,1,77.15,19a3.78,3.78,0,0,1-3.66,4.1m11.82,4.59h5.55V19c0-2.7,1.29-4,3.21-4s2.78.82,2.78,3.7v9.09h5.55V17.28c0-5.52-2.63-7.3-6.23-7.3a6.79,6.79,0,0,0-5.24,2.35h-.07v-2H85.31Zm27.12.32a6,6,0,0,0,4.95-2.17h.07v1.85h5.31V1.51h-5.6V12.15h0a6.52,6.52,0,0,0-5-2.17c-4.49,0-8,3.7-8,9.05s3.42,9,8.23,9m1.14-4.91c-2.17,0-3.74-1.64-3.74-4.1s1.64-4.14,3.74-4.14A3.84,3.84,0,0,1,117.38,19a3.79,3.79,0,0,1-3.81,4.1m14.92-15a3.17,3.17,0,1,0-3.31-3.21,3.2,3.2,0,0,0,3.31,3.21m-2.78,19.59h5.55V10.3h-5.55Z"/></g></svg>